<!DOCTYPE svg PUBLIC "-//W3C//DTD SVG 1.1//EN" "http://www.w3.org/Graphics/SVG/1.1/DTD/svg11.dtd">
<!-- Uploaded to: SVG Repo, www.svgrepo.com, Transformed by: SVG Repo Mixer Tools -->
<svg width="800px" height="800px" viewBox="0 0 64 64" xmlns="http://www.w3.org/2000/svg" xmlns:xlink="http://www.w3.org/1999/xlink" aria-hidden="true" role="img" class="iconify iconify--emojione" preserveAspectRatio="xMidYMid meet" fill="#000000">
<g id="SVGRepo_bgCarrier" stroke-width="0"/>
<g id="SVGRepo_tracerCarrier" stroke-linecap="round" stroke-linejoin="round"/>
<g id="SVGRepo_iconCarrier">
<path fill="#947151" d="M25 52.1h14V64H25z"/>
<path d="M32 34.9L2 55.1s14.5 3.4 30 3.4s30-3.4 30-3.4L32 34.9z" fill="#3a5c3a"/>
<path d="M32 23.6L7 43.8s12.1 3.4 25 3.4s25-3.4 25-3.4L32 23.6z" fill="#4a6c4a"/>
<path d="M32 12.3L12 32.5s9.7 3.4 20 3.4s20-3.4 20-3.4L32 12.3z" fill="#5d835e"/>
<path d="M32 1L17 20.8s7.2 3.8 15 3.8s15-3.8 15-3.8L32 1z" fill="#719472"/>
</g>
</svg>